<svg xmlns="http://www.w3.org/2000/svg" width="100%" height="100%" fill="#f3f4f5" preserveAspectRatio="xMidYMid meet"><svg><symbol id="AWS--Compute--_Instance--Amazon-EC2_A1-Instance_light-bg"><g id="ahaWorking"><path class="ahacls-152699482124763654285" d="m23 30.09-.75-2.43h-3.63l-.72 2.43h-2.42l3.75-10.65h2.54l3.74 10.65zM19.11 26h2.67l-1.35-4.45zm10.66 4.09v-8.4l-2.77.86V20.8l3-1.36h2v10.65z"/><path class="ahacls-152699482124763654285" d="M44.31 44.31H5.69V5.69h38.62zm-36.62-2h34.62V7.69H7.69z"/><path class="ahacls-152699482124763654285" d="M11.21 1h2v5.69h-2zm6.27 0h2v5.69h-2zm6.28 0h2v5.69h-2zm6.28 0h2v5.69h-2zm6.28 0h2v5.69h-2zM11.21 43.31h2V49h-2zm6.27 0h2V49h-2zm6.28 0h2V49h-2zm6.28 0h2V49h-2zm6.28 0h2V49h-2zm6.99-31.86H49v2h-5.69zm0 6.27H49v2h-5.69zm0 6.28H49v2h-5.69zm0 6.28H49v2h-5.69zm0 6.27H49v2h-5.69zM1 11.45h5.69v2H1zm0 6.27h5.69v2H1zM1 24h5.69v2H1zm0 6.28h5.69v2H1zm0 6.27h5.69v2H1z"/></g></symbol></svg><g id="drawing-grid"><rect id="panner" x="252.51047120418843" y="1649.4525353556528" width="100%" height="100%" stroke-width="1" stroke-dasharray="none" opacity="1" fill="rgb(251, 251, 251)"/><g fill="white"><defs><pattern id="smallSquareGrid" patternUnits="userSpaceOnUse" width="10" height="10"><path d="M 10 0 L 0 0 0 10" stroke="#c7c7c7" stroke-width="0.3"/></pattern><pattern id="squareGrid" patternUnits="userSpaceOnUse" width="40" height="40"><rect width="40" height="40" fill="url(#smallSquareGrid)"/><path d="M 40 0 L 0 0 0 40" fill="none" stroke="#ededed" stroke-width="2"/></pattern></defs><rect x="252.51047120418843" y="1649.4525353556528" id="grid" width="100%" height="100%" opacity="1" fill="url(#squareGrid)"/></g></g><g pointer-events="auto" class="jss180"/></svg>